<svg xmlns="http://www.w3.org/2000/svg" xmlns:xlink="http://www.w3.org/1999/xlink" viewBox="0 0 70 70"><defs><style>.cls-1{fill:none;}.cls-2{fill:url(#linear-gradient);}.cls-3{clip-path:url(#clip-path);}.cls-4{fill:#0f1046;}.cls-5{fill:#fff;}.cls-6{fill:#2a2b8d;}</style><linearGradient id="linear-gradient" x1="-500.7" y1="216.89" x2="-558.52" y2="331.53" gradientTransform="matrix(1, 0, 0, -1, 564, 308)" gradientUnits="userSpaceOnUse"><stop offset="0" stop-color="#2a2b8d"/><stop offset="0.03" stop-color="#2b2f8f"/><stop offset="1" stop-color="#559bd1"/></linearGradient><clipPath id="clip-path"><rect class="cls-1" x="14.89" y="14.87" width="40" height="40"/></clipPath></defs><title>Asset 1</title><g id="Layer_2" data-name="Layer 2"><g id="Layer_1-2" data-name="Layer 1"><rect class="cls-2" width="70" height="70" rx="26"/><g class="cls-3"><path class="cls-4" d="M43.16,20.77a28.83,28.83,0,0,0-12.95,2.08l-3.29-1.2a22.74,22.74,0,0,1-.07-3.87.78.78,0,0,0-.05-.34.83.83,0,0,0-.47-.5.75.75,0,0,0-.33-.07c-.12,0-3,0-6.59,3.71-4,4.09-4.5,11.91-4.52,12.23a.88.88,0,0,0,.22.62,10,10,0,0,0,5.62,2.87A13.84,13.84,0,0,0,28.61,35l-2.36,4.55a.37.37,0,0,1-.16.17.4.4,0,0,1-.22.06H16.6a1.69,1.69,0,0,0-1.21.51,1.74,1.74,0,0,0,0,2.44,1.69,1.69,0,0,0,1.21.51H36.67a1.67,1.67,0,0,0,1.21-.51,1.74,1.74,0,0,0,0-2.44,1.67,1.67,0,0,0-1.21-.51H33.51a.46.46,0,0,1-.2-.05.46.46,0,0,1-.16-.15.37.37,0,0,1-.06-.21.39.39,0,0,1,0-.21l3.66-7.69a1.22,1.22,0,0,1,.29-.41,1.3,1.3,0,0,1,.43-.27,1.15,1.15,0,0,1,.49-.08,1.21,1.21,0,0,1,.49.11,1.28,1.28,0,0,1,.4.29,1.3,1.3,0,0,1,.27.43,1.22,1.22,0,0,1,.08.5,1.25,1.25,0,0,1-.11.5l-1.42,3.17a.39.39,0,0,0,0,.21.37.37,0,0,0,.06.21.36.36,0,0,0,.16.14.35.35,0,0,0,.2,0h2.74c4.8,0,10.35,2.26,10.35,7.78a4.78,4.78,0,0,1-1.37,3.36,4.68,4.68,0,0,1-3.32,1.39,3.86,3.86,0,0,1-1.57-.34,3.73,3.73,0,0,1-1.3-1,1.21,1.21,0,0,1-.27-.43,1.27,1.27,0,0,1-.08-.51,1.46,1.46,0,0,1,.12-.5,1.4,1.4,0,0,1,.3-.42,1.5,1.5,0,0,1,.44-.26,1.28,1.28,0,0,1,.51-.06,1.2,1.2,0,0,1,.49.14,1.11,1.11,0,0,1,.4.32,1.51,1.51,0,0,0,.43.32,1.4,1.4,0,0,0,.53.11A2.15,2.15,0,0,0,48,45.63a2.19,2.19,0,0,0,.62-1.53A3.08,3.08,0,0,0,48,42.28c-2.48-3.34-7.46-.24-7.46,3.54s2.56,6,6.83,6c5.61,0,8.54-7.82,8.54-15.55C55.89,27.05,51.37,21.53,43.16,20.77Z"/><path class="cls-5" d="M23.39,31.87a3.5,3.5,0,1,0-3.5-3.5A3.5,3.5,0,0,0,23.39,31.87Z"/><path class="cls-6" d="M23.39,29.87a1.5,1.5,0,1,0-1.5-1.5A1.5,1.5,0,0,0,23.39,29.87Z"/></g></g></g></svg>